<svg width="40" height="38" viewBox="0 0 40 38" fill="none" xmlns="http://www.w3.org/2000/svg">
<rect width="39.3333" height="38" fill="black" fill-opacity="0" transform="translate(0.666687)"/>
<rect width="15.2963" height="20.0555" fill="black" fill-opacity="0" transform="translate(12.6852 9.5)"/>
<rect width="15.2963" height="20.0555" fill="black" fill-opacity="0" transform="translate(12.6852 9.5)"/>
<path d="M21.3024 27.2572C24.865 27.2572 27.7633 24.2741 27.7633 20.6074C27.7633 16.9406 24.865 13.9575 21.3024 13.9575C19.5251 13.9575 17.8571 14.7066 16.6559 15.9857V10.6256H25.5431C25.8451 10.6256 26.0899 10.3737 26.0899 10.0628C26.0899 9.75195 25.8451 9.5 25.5431 9.5H16.109C15.807 9.5 15.5622 9.75195 15.5622 10.0628V17.5421L15.5558 17.6792C15.544 17.9413 15.7095 18.1773 15.9548 18.2478C16.2011 18.3186 16.4608 18.2049 16.5824 17.9745C17.5239 16.1909 19.3324 15.0829 21.3024 15.0829C24.2618 15.0829 26.6697 17.561 26.6697 20.6072C26.6697 23.6533 24.2618 26.1314 21.3024 26.1314C20.3074 26.1314 19.3625 25.8432 18.5484 25.341V20.6074C18.5484 19.0442 19.7839 17.7726 21.3024 17.7726C22.821 17.7726 24.0564 19.0442 24.0564 20.6074C24.0564 22.1705 22.821 23.4421 21.3024 23.4421C20.9348 23.4421 20.5781 23.3689 20.2421 23.2244C19.9645 23.1048 19.6434 23.24 19.5269 23.527C19.4106 23.8139 19.5422 24.1435 19.8209 24.2632C20.291 24.4653 20.7893 24.5677 21.3024 24.5677C23.4241 24.5677 25.1501 22.7911 25.1501 20.6074C25.1501 18.4236 23.4239 16.647 21.3024 16.647C19.1809 16.647 17.4548 18.4236 17.4548 20.6074V24.4536C16.8391 23.8034 16.373 22.995 16.1276 22.0789C16.0474 21.7793 15.7465 21.6032 15.4552 21.6859C15.164 21.7684 14.9932 22.0784 15.0732 22.378C15.8426 25.251 18.4039 27.2572 21.3024 27.2572Z" fill="white"/>
<path d="M18.0164 12.3435C17.7404 12.4696 17.6161 12.8022 17.7386 13.0862C17.8611 13.3701 18.1839 13.4986 18.4604 13.3722C20.1741 12.5889 23.5417 11.7706 26.8335 15.0931C26.94 15.2006 27.0783 15.254 27.2165 15.254C27.3581 15.254 27.4999 15.1977 27.6069 15.0854C27.8184 14.8634 27.8151 14.507 27.5995 14.2894C23.7059 10.3598 19.6005 11.6194 18.0164 12.3435Z" fill="white"/>
<path d="M27.7936 25.6901C27.5656 25.4864 27.2201 25.511 27.0222 25.7457C25.5813 27.4514 23.4964 28.4297 21.3024 28.4297C17.4478 28.4297 14.2119 25.462 13.7754 21.5264C13.7411 21.2176 13.4695 20.9951 13.1702 21.0311C12.8702 21.0664 12.6546 21.3452 12.6888 21.6542C13.1883 26.1586 16.8914 29.5555 21.3024 29.5555C23.8131 29.5555 26.1987 28.4361 27.8474 26.4844C28.0455 26.2496 28.0214 25.8941 27.7936 25.6901Z" fill="white"/>
<path d="M19.9109 21.9718C20.0179 22.0834 20.159 22.1395 20.3003 22.1395C20.439 22.1395 20.5777 22.0855 20.6841 21.9774L21.2457 21.4075L21.7995 21.9853C21.9065 22.0969 22.0475 22.153 22.1888 22.153C22.3275 22.153 22.4662 22.099 22.5727 21.9909C22.7878 21.7726 22.7901 21.4163 22.578 21.1949L22.0244 20.6171L22.5656 20.068C22.7807 19.8496 22.783 19.4934 22.5709 19.272C22.3587 19.0506 22.0124 19.0482 21.7976 19.2664L21.2565 19.8157L20.7228 19.2587C20.5106 19.0373 20.1643 19.0349 19.9496 19.253C19.7345 19.4714 19.7321 19.8277 19.9443 20.049L20.4778 20.6059L19.9164 21.1758C19.7013 21.3942 19.6987 21.7504 19.9109 21.9718Z" fill="white"/>
</svg>
