<svg width="40" height="38" viewBox="0 0 40 38" fill="none" xmlns="http://www.w3.org/2000/svg">
<rect width="39.3333" height="38" fill="black" fill-opacity="0" transform="translate(0.666626)"/>
<rect width="28.4074" height="16.8889" fill="black" fill-opacity="0" transform="translate(6.12964 10.5555)"/>
<path d="M31.7836 12.9455H24.6657V11.2562H31.7842V12.9455H31.7836V12.9455ZM19.9272 19.8729C20.3865 20.5526 20.616 21.3779 20.616 22.3468C20.616 23.3488 20.3572 24.2477 19.8308 25.0417C19.4959 25.5671 19.08 26.0109 18.5804 26.3682C18.0177 26.7814 17.3515 27.0648 16.5857 27.2162C15.8174 27.3678 14.9858 27.4444 14.09 27.4444H6.12964V10.5555H14.6659C16.8176 10.589 18.343 11.1846 19.2438 12.3544C19.7843 13.0719 20.0522 13.9328 20.0522 14.9334C20.0522 15.9659 19.7811 16.7921 19.2353 17.4198C18.9317 17.7718 18.4832 18.0919 17.8895 18.3809C18.7888 18.6954 19.4712 19.1908 19.9272 19.8729ZM10.2061 17.214H13.9463C14.7149 17.214 15.3363 17.0744 15.8148 16.7953C16.2931 16.5167 16.5317 16.0215 16.5317 15.3104C16.5317 14.5248 16.2157 14.0034 15.5823 13.7524C15.0378 13.578 14.3412 13.4882 13.4959 13.4882H10.2061V17.214ZM16.8918 22.1056C16.8918 21.2283 16.5166 20.6218 15.7676 20.2964C15.3487 20.1114 14.7577 20.0169 14 20.0101H10.2061V24.5109H13.9413C14.7087 24.5109 15.3026 24.4149 15.7312 24.2147C16.5042 23.8465 16.8918 23.1459 16.8918 22.1056ZM34.4245 19.358C34.5105 19.9106 34.5494 20.7123 34.5336 21.7602H25.3152C25.3661 22.9759 25.8053 23.8262 26.6384 24.3127C27.1408 24.6178 27.7499 24.7668 28.4632 24.7668C29.2153 24.7668 29.8284 24.5851 30.3003 24.2117C30.5574 24.0137 30.7842 23.7343 30.9803 23.3817H34.3591C34.2706 24.0998 33.8638 24.8281 33.1327 25.5682C31.9999 26.7445 30.4113 27.3344 28.371 27.3344C26.6856 27.3344 25.2002 26.8369 23.9108 25.8456C22.6258 24.8508 21.9804 23.2374 21.9804 20.9994C21.9804 18.9007 22.5598 17.2944 23.7225 16.1763C24.8895 15.0561 26.3956 14.4986 28.2521 14.4986C29.3525 14.4986 30.3444 14.6865 31.2293 15.0643C32.1115 15.4425 32.8405 16.0377 33.4147 16.8557C33.9344 17.5761 34.2686 18.4091 34.4245 19.358ZM31.0987 19.6732C31.0367 18.8325 30.743 18.1962 30.214 17.7614C29.6894 17.3253 29.0341 17.1064 28.2521 17.1064C27.401 17.1064 26.7439 17.3404 26.2769 17.8003C25.8068 18.2593 25.5143 18.8832 25.3945 19.6733H31.0987V19.6732Z" fill="white"/>
</svg>
