<svg width="40" height="38" viewBox="0 0 40 38" fill="none" xmlns="http://www.w3.org/2000/svg">
<rect width="39.3333" height="38" fill="black" fill-opacity="0"/>
<rect width="10.9259" height="21.1111" fill="black" fill-opacity="0" transform="translate(14.2037 8.44446)"/>
<rect width="10.9259" height="21.1111" fill="black" fill-opacity="0" transform="translate(14.2037 8.44446)"/>
<path d="M24.7182 8.44885L22.0976 8.44446C19.1534 8.44446 17.2507 10.4837 17.2507 13.6399V16.0354H14.6158C14.3881 16.0354 14.2037 16.2282 14.2037 16.4661V19.9368C14.2037 20.1747 14.3883 20.3673 14.6158 20.3673H17.2507V29.1251C17.2507 29.363 17.4351 29.5556 17.6628 29.5556H21.1006C21.3283 29.5556 21.5127 29.3627 21.5127 29.1251V20.3673H24.5936C24.8212 20.3673 25.0056 20.1747 25.0056 19.9368L25.0069 16.4661C25.0069 16.3519 24.9634 16.2425 24.8862 16.1617C24.809 16.0809 24.7039 16.0354 24.5946 16.0354H21.5127V14.0047C21.5127 13.0287 21.7353 12.5332 22.9524 12.5332L24.7178 12.5326C24.9453 12.5326 25.1297 12.3397 25.1297 12.1021V8.87932C25.1297 8.6419 24.9455 8.44929 24.7182 8.44885Z" fill="white"/>
</svg>
