<svg width="40" height="38" viewBox="0 0 40 38" fill="none" xmlns="http://www.w3.org/2000/svg">
<rect width="39.3333" height="38" fill="black" fill-opacity="0" transform="translate(0.333374)"/>
<rect width="21.8519" height="21.1111" fill="black" fill-opacity="0" transform="translate(9.0741 8.44446)"/>
<path d="M24.8955 8.44446H15.1043C11.7792 8.44446 9.0741 11.058 9.0741 14.2704V23.7297C9.0741 26.9421 11.7792 29.5556 15.1043 29.5556H24.8955C28.2208 29.5556 30.926 26.942 30.926 23.7297V14.2704C30.9261 11.058 28.2208 8.44446 24.8955 8.44446ZM28.9873 23.7297C28.9873 25.9093 27.1517 27.6825 24.8956 27.6825H15.1043C12.8483 27.6826 11.0129 25.9093 11.0129 23.7297V14.2704C11.0129 12.0908 12.8483 10.3175 15.1043 10.3175H24.8955C27.1516 10.3175 28.9871 12.0908 28.9871 14.2704V23.7297H28.9873Z" fill="white"/>
<path d="M20.0001 13.5605C16.8953 13.5605 14.3694 16.0007 14.3694 19.0003C14.3694 21.9997 16.8953 24.4398 20.0001 24.4398C23.1049 24.4398 25.6307 21.9997 25.6307 19.0003C25.6307 16.0007 23.1049 13.5605 20.0001 13.5605ZM20.0001 22.5666C17.9644 22.5666 16.3082 20.9667 16.3082 19.0001C16.3082 17.0334 17.9643 15.4334 20.0001 15.4334C22.0358 15.4334 23.6919 17.0334 23.6919 19.0001C23.6919 20.9667 22.0357 22.5666 20.0001 22.5666Z" fill="white"/>
<path d="M25.8667 11.9722C25.4932 11.9722 25.1262 12.1183 24.8624 12.3743C24.5973 12.629 24.4449 12.9837 24.4449 13.3458C24.4449 13.7068 24.5975 14.0613 24.8624 14.3173C25.1261 14.572 25.4932 14.7194 25.8667 14.7194C26.2416 14.7194 26.6074 14.572 26.8723 14.3173C27.1373 14.0613 27.2885 13.7067 27.2885 13.3458C27.2885 12.9837 27.1373 12.629 26.8723 12.3743C26.6087 12.1183 26.2416 11.9722 25.8667 11.9722Z" fill="white"/>
</svg>
