<svg width="40" height="38" viewBox="0 0 40 38" fill="none" xmlns="http://www.w3.org/2000/svg">
<rect width="39.3333" height="38" fill="black" fill-opacity="0"/>
<rect width="26.2222" height="21.1111" fill="black" fill-opacity="0" transform="translate(6.55554 8.44446)"/>
<path d="M32.7778 10.9437C31.8026 11.3675 30.7636 11.6485 29.6803 11.7849C30.7947 11.1256 31.6453 10.0895 32.0452 8.8407C31.0061 9.45454 29.8589 9.88813 28.6363 10.1301C27.6497 9.08916 26.2435 8.44446 24.7095 8.44446C21.7333 8.44446 19.3372 10.8381 19.3372 13.7726C19.3372 14.1948 19.3733 14.6008 19.4618 14.9873C14.9925 14.7713 11.0379 12.6488 8.38126 9.41557C7.91746 10.2129 7.6454 11.1256 7.6454 12.108C7.6454 13.9528 8.60415 15.5881 10.0333 16.5349C9.16957 16.5186 8.32226 16.2702 7.60443 15.8788C7.60443 15.8951 7.60443 15.9162 7.60443 15.9373C7.60443 18.5258 9.46785 20.6759 11.9114 21.1712C11.4738 21.2898 10.9969 21.3466 10.502 21.3466C10.1578 21.3466 9.81038 21.3271 9.48424 21.2557C10.1808 23.3651 12.1573 24.916 14.5074 24.9663C12.6784 26.384 10.3561 27.2382 7.84207 27.2382C7.40121 27.2382 6.97838 27.2187 6.55554 27.1651C8.93685 28.6868 11.759 29.5556 14.8024 29.5556C24.6948 29.5556 30.1031 21.4359 30.1031 14.3978C30.1031 14.1623 30.0949 13.935 30.0834 13.7092C31.1504 12.959 32.0468 12.022 32.7778 10.9437Z" fill="white"/>
</svg>
