<svg width="40" height="38" viewBox="0 0 40 38" fill="none" xmlns="http://www.w3.org/2000/svg">
<rect width="39.3333" height="38" fill="black" fill-opacity="0" transform="translate(0.333374)"/>
<rect width="24.037" height="20.0556" fill="black" fill-opacity="0" transform="translate(7.98151 9.5)"/>
<path d="M28.5048 9.50433C25.1632 9.39936 22.9018 11.204 21.7178 14.9202C22.3276 14.6784 22.9202 14.5564 23.4981 14.5564C24.7166 14.5564 25.256 15.2148 25.112 16.535C25.0406 17.3345 24.5023 18.4978 23.4981 20.0245C22.49 21.5537 21.737 22.3169 21.2368 22.3169C20.5874 22.3169 19.9962 21.1356 19.4565 18.7757C19.2755 18.0807 18.9518 16.311 18.4883 13.462C18.0538 10.8233 16.9057 9.59036 15.0387 9.76365C14.249 9.83354 13.0659 10.5298 11.4869 11.8476C10.335 12.855 9.16783 13.8626 7.98151 14.8693L9.11178 16.2741C10.1905 15.5445 10.8216 15.1814 10.9968 15.1814C11.824 15.1814 12.5965 16.4306 13.3154 18.9287C13.9597 21.223 14.6095 23.5142 15.257 25.8052C16.2214 28.3051 17.4102 29.5556 18.8086 29.5556C21.0704 29.5556 23.8398 27.5076 27.1058 23.4102C30.2653 19.4876 31.8965 16.3971 32.0065 14.138C32.1515 11.1189 30.9844 9.57287 28.5048 9.50433Z" fill="white"/>
</svg>
